<svg xmlns="http://www.w3.org/2000/svg" viewBox="0 0 14.52 14.53"><g id="Layer_2" data-name="Layer 2"><g id="Layer_1-2" data-name="Layer 1"><path class="cls-1" d="M13.15,4.5H11.81s0,0,0,0A4.55,4.55,0,0,0,7.34,0L7.27,0H7.18L7.11,0A4.5,4.5,0,0,0,2.7,4.47a0,0,0,0,0,0,0H1.37A1.36,1.36,0,0,0,0,5.86v7.3a1.37,1.37,0,0,0,1.37,1.37H13.15a1.38,1.38,0,0,0,1.37-1.37V5.86A1.37,1.37,0,0,0,13.15,4.5Zm-8.85,0A2.93,2.93,0,0,1,7.23,1.6a3,3,0,0,1,3,2.87s0,0,0,0H4.29S4.3,4.48,4.3,4.47Zm8.62,8.15a.31.31,0,0,1-.31.31H1.91a.31.31,0,0,1-.31-.31V6.4a.31.31,0,0,1,.31-.3h10.7a.31.31,0,0,1,.31.3Z"/></g></g></svg>