<svg xmlns="http://www.w3.org/2000/svg" viewBox="0 0 14.48 14.55"><defs><style>.cls-1{fill:#fff;}</style></defs><g id="Layer_2" data-name="Layer 2"><g id="Layer_1-2" data-name="Layer 1"><path class="cls-1" d="M7.24,14.55C6.13,14.55,4,12.9,2.7,11.37A10.26,10.26,0,0,1,0,4.57,4.43,4.43,0,0,1,4.18,0,4,4,0,0,1,7.24,1.48,4,4,0,0,1,10.3,0a4.43,4.43,0,0,1,4.18,4.57,10,10,0,0,1-2.67,6.59C10.46,12.73,8.17,14.55,7.24,14.55ZM4.18,1.8A2.65,2.65,0,0,0,1.8,4.62a8.44,8.44,0,0,0,2.26,5.57,10,10,0,0,0,3.13,2.54A13,13,0,0,0,10.45,10a8.23,8.23,0,0,0,2.23-5.36A2.65,2.65,0,0,0,10.3,1.8,2.35,2.35,0,0,0,8.2,3.32a1,1,0,0,1-1.92,0A2.36,2.36,0,0,0,4.18,1.8Z"/></g></g></svg>