<svg id="Layer_1" data-name="Layer 1" xmlns="http://www.w3.org/2000/svg" viewBox="0 0 562.08 208.11"><defs><style>.logo-1{fill:#0ea7d6;}.logo-2{fill:#11a6d5;}.logo-3{fill:#ffffff;}</style></defs><path class="logo-1" d="M389.38,1.22" transform="translate(-14.3 -15.75)"/><path class="logo-1" d="M477.72,15.75l-72.67.16c-.08,0,1.23,1.34,1.28,1.41l39,42.81a.11.11,0,0,0,.09,0l17.17.24h0c32.67,0,53.77,16.42,46.51,52.38-7,34.63-40,64.16-90.82,64.16-32.52,0-160.89.19-160.89.19l51.93-97.92L251.41,59.69s-42.3,77.83-56.19,103.92c-17.3,32.46,6.28,60.24,34.91,60.24H445.42c64,1,119.36-45.45,129.38-109.65C585.67,44.58,539,15.75,477.72,15.75Z" transform="translate(-14.3 -15.75)"/><path class="logo-2" d="M282.84,71.79l15.8,28.28c-.21.27,7.65-13.76,12.86-24,3.51-6.91,5.09-15.57,5-19.61h-24A10.71,10.71,0,0,0,282.84,71.79Z" transform="translate(-14.3 -15.75)"/><path class="logo-3" d="M405.05,15.91s-35.7,66.73-52.33,98.35c-4.68,8.9-15.41,9.08-15.41,9.08H324.18c-8.74-.21-15-5.75-19.73-13.11-3.17-4.92-5.82-10.14-5.81-10.17s6.06-11.13,12.86-24c5.36-10.17,7.21-23.52,2.77-34.51C307.48,24.73,291.61,16,273.73,15.76c-.7,0-1.38.05-2.07.07v-.08H67.35L42.55,60.38h73.2a.1.1,0,0,1,.09.15L14.3,223.85H83.54L183.72,60.41h43.09c.05.08,17.05,28.4,44.46,75.07,13.25,22.56,28,26.67,48.06,27.45,3.54.14,30.57,0,34.12,0,16.3.15,35.92,0,48.19-23.51,11.17-21.39,43.78-79.23,43.78-79.23Z" transform="translate(-14.3 -15.75)"/><path class="logo-1" d="M282.84,71.79l15.8,28.28c-.13.32,7.85-14.12,13.12-24.37a42.6,42.6,0,0,0,5-19.28H292.48A10.71,10.71,0,0,0,282.84,71.79Z" transform="translate(-14.3 -15.75)"/></svg>